<svg width="41" height="41" viewBox="0 0 41 41" fill="none" xmlns="http://www.w3.org/2000/svg">
<path d="M16.2292 11.1042V16.2292H11.1042V11.1042H16.2292ZM18.7917 8.54166H8.54167V18.7917H18.7917V8.54166ZM16.2292 24.7708V29.8958H11.1042V24.7708H16.2292ZM18.7917 22.2083H8.54167V32.4583H18.7917V22.2083ZM29.8958 11.1042V16.2292H24.7708V11.1042H29.8958ZM32.4583 8.54166H22.2083V18.7917H32.4583V8.54166ZM22.2083 22.2083H24.7708V24.7708H22.2083V22.2083ZM24.7708 24.7708H27.3333V27.3333H24.7708V24.7708ZM27.3333 22.2083H29.8958V24.7708H27.3333V22.2083ZM22.2083 27.3333H24.7708V29.8958H22.2083V27.3333ZM24.7708 29.8958H27.3333V32.4583H24.7708V29.8958ZM27.3333 27.3333H29.8958V29.8958H27.3333V27.3333ZM29.8958 24.7708H32.4583V27.3333H29.8958V24.7708ZM29.8958 29.8958H32.4583V32.4583H29.8958V29.8958ZM37.5833 11.9583H34.1667V6.83332H29.0417V3.41666H37.5833V11.9583ZM37.5833 37.5833V29.0417H34.1667V34.1667H29.0417V37.5833H37.5833ZM3.41667 37.5833H11.9583V34.1667H6.83333V29.0417H3.41667V37.5833ZM3.41667 3.41666V11.9583H6.83333V6.83332H11.9583V3.41666H3.41667Z" fill="black"/>
</svg>
